<svg width="1620" height="1620" viewBox="0 0 1620 1620" fill="none" xmlns="http://www.w3.org/2000/svg">
<path d="M0 405C0 181.325 181.325 0 405 0H1215C1438.68 0 1620 181.325 1620 405V1215C1620 1438.68 1438.68 1620 1215 1620H405C181.325 1620 0 1438.68 0 1215V405Z" fill="#009FE1"/>
<path d="M713.184 848.184C692.095 827.095 692.095 792.905 713.184 771.816L771.816 713.184C792.905 692.095 827.095 692.095 848.184 713.184L906.816 771.816C927.905 792.905 927.905 827.095 906.816 848.184L848.184 906.816C827.095 927.905 792.905 927.905 771.816 906.816L713.184 848.184Z" fill="white"/>
<path d="M810 270C1077.57 270 1299.68 464.606 1342.53 720H1064.64C1027.57 615.133 927.56 540 810 540C660.883 540 540 660.883 540 810C540 959.117 660.883 1080 810 1080C927.56 1080 1027.57 1004.87 1064.64 900H1342.53C1299.68 1155.39 1077.57 1350 810 1350C511.766 1350 270 1108.23 270 810C270 511.766 511.766 270 810 270Z" fill="white"/>
</svg>
