<svg width="7775" height="2161" viewBox="0 0 7775 2161" fill="none" xmlns="http://www.w3.org/2000/svg">
<path d="M4725 1079.35C4725 781.118 4966.77 539.352 5265 539.352V809.352C5115.88 809.352 4995 930.235 4995 1079.35H4725Z" fill="black"/>
<path d="M4883.49 697.839C5094.37 486.956 5436.28 486.956 5647.16 697.839L5456.24 888.758C5350.8 783.316 5179.85 783.316 5074.41 888.758L4883.49 697.839Z" fill="black"/>
<path d="M4725.32 539.677H4995.32V1619.68H4725.32V539.677Z" fill="black"/>
<path fill-rule="evenodd" clip-rule="evenodd" d="M2835 540C3133.23 540 3375 781.766 3375 1080C3375 1378.23 3133.23 1620 2835 1620C2536.77 1620 2295 1378.23 2295 1080C2295 781.766 2536.77 540 2835 540ZM2835 810C2685.88 810 2565 930.883 2565 1080C2565 1229.12 2685.88 1350 2835 1350C2984.12 1350 3105 1229.12 3105 1080C3105 930.883 2984.12 810 2835 810Z" fill="black"/>
<path d="M2295 540H2565V2160H2295V540Z" fill="black"/>
<path d="M3510 0H3780V1620H3510V0Z" fill="black"/>
<path d="M4050 540C4348.23 540 4590 781.766 4590 1080C4590 1279.88 4481.41 1454.39 4320 1547.75V1080C4320 930.883 4199.12 810 4050 810C3900.88 810 3780 930.883 3780 1080V1547.75C3618.59 1454.39 3510 1279.88 3510 1080C3510 781.766 3751.77 540 4050 540Z" fill="black"/>
<path fill-rule="evenodd" clip-rule="evenodd" d="M6221 540C6519.23 540 6761 781.766 6761 1080C6761 1378.23 6519.23 1620 6221 1620C5922.77 1620 5681 1378.23 5681 1080C5681 781.766 5922.77 540 6221 540ZM6221 810C6071.88 810 5951 930.883 5951 1080C5951 1229.12 6071.88 1350 6221 1350C6370.12 1350 6491 1229.12 6491 1080C6491 930.883 6370.12 810 6221 810Z" fill="black"/>
<path d="M6491 540H6761V1620H6491V540Z" fill="black"/>
<path d="M7341.58 539C7469.12 539 7574.33 571.613 7647.2 636.84C7721.3 702.066 7763.81 768.617 7774.74 876.491H7504.87C7500.01 840.115 7494.22 826.264 7467.5 804.94C7441.99 783.617 7376.98 777.955 7334.47 777.955C7298.03 777.955 7228.01 789.948 7202.8 804.533C7178.13 818.804 7165.4 850.773 7165.4 875.86C7165.4 905.965 7184.88 942.543 7223.83 957.596C7264.35 972.648 7326.67 976.701 7410.82 991.753C7507.42 1011.82 7550.46 1011.89 7597.83 1031.96C7626.08 1043.18 7653.23 1058.86 7678.02 1079H6992.75C6977.11 1066.17 6962.47 1051.75 6948.84 1035.72C6913.61 993.077 6896 936.003 6896 864.505C6896 804.296 6911.79 749.731 6943.37 700.812C6976.17 650.638 7023.54 611.125 7085.48 582.275C7148.64 553.425 7255.34 539 7341.58 539Z" fill="black"/>
<path d="M7329.16 1619C7201.62 1619 7096.41 1586.39 7023.54 1521.16C6949.44 1455.93 6906.93 1389.38 6896 1281.51H7165.87C7170.73 1317.89 7176.52 1331.74 7203.24 1353.06C7228.75 1374.38 7293.76 1380.04 7336.27 1380.04C7372.71 1380.04 7442.74 1368.05 7467.94 1353.47C7492.61 1339.2 7505.34 1307.23 7505.34 1282.14C7505.34 1252.04 7485.86 1215.46 7446.91 1200.4C7406.39 1185.35 7344.07 1181.3 7259.92 1166.25C7163.32 1146.18 7120.28 1146.11 7072.91 1126.04C7044.66 1114.82 7017.51 1099.14 6992.72 1079H7677.99C7693.63 1091.83 7708.27 1106.25 7721.9 1122.28C7757.13 1164.92 7774.74 1222 7774.74 1293.5C7774.74 1353.7 7758.95 1408.27 7727.37 1457.19C7694.57 1507.36 7647.2 1546.87 7585.26 1575.72C7522.1 1604.57 7415.4 1619 7329.16 1619Z" fill="black"/>
<path d="M4320 1080H4590V1620H4320V1080Z" fill="black"/>
<path d="M1731.23 1510.82L1478.33 1605.37L1080 540H1368.25L1731.23 1510.82Z" fill="black"/>
<path d="M1759.72 1609.38L1506.82 1514.83L1871.3 540H2159.55L1759.72 1609.38Z" fill="black"/>
<path d="M1664.83 1091L1917.73 1185.56L1553.25 2160.38H1265L1664.83 1091Z" fill="black"/>
<path d="M540 539C807.569 539 1029.68 733.606 1072.53 989H794.636C757.57 884.133 657.56 809 540 809C390.883 809 270 929.883 270 1079C270 1228.12 390.883 1349 540 1349C657.56 1349 757.57 1273.87 794.636 1169H1072.53C1029.68 1424.39 807.57 1619 540 1619C241.766 1619 0 1377.23 0 1079C0 780.766 241.766 539 540 539Z" fill="black"/>
</svg>
